<svg xmlns="http://www.w3.org/2000/svg" viewBox="0 0 1903.12 1562.24"><defs><style>.a{fill:#21a67d;}</style></defs><polygon class="a" points="1194.05 261.7 1194.05 261.75 1194.05 266.8 1194.05 442.21 1194.05 527.42 1350.38 437.17 1350.38 351.96 1194.05 261.7"/><polygon class="a" points="1037.72 617.68 881.39 707.94 1037.72 798.2 1194.05 707.94 1194.05 527.42 1037.72 617.68 1037.72 617.68"/><polygon class="a" points="1021.73 180.72 1021.73 180.51 885.22 259.33 874.33 265.62 874.33 275.93 874.33 441.03 865.4 446.19 865.4 446.19 709.07 536.45 865.4 626.7 881.39 617.47 881.39 617.68 1017.9 538.87 1028.79 532.58 1028.79 522.27 1028.79 357.16 1037.72 352.01 1037.72 352 1194.05 261.75 1037.72 171.49 1021.73 180.72"/><polygon class="a" points="709.07 355.98 709.07 270.77 552.74 361.03 552.74 446.24 709.07 536.5 709.07 536.45 709.07 531.4 709.07 355.98"/><polygon class="a" points="865.4 180.51 1021.73 90.26 865.4 0 709.07 90.26 709.07 270.77 865.4 180.51 865.4 180.51"/><path d="M292.13,1381.73a103.11,103.11,0,0,0-39.84-28c-15.47-6.09-35.83-12.18-61.39-18.27-19.66-4.52-35.14-8.87-46.62-12.87a83.65,83.65,0,0,1-28.7-16.87c-7.65-7.31-11.48-16.7-11.48-28.35q0-23.49,20.35-38.62c13.74-9.91,34.27-15,61.75-15a169.61,169.61,0,0,1,47.31,7,184.24,184.24,0,0,1,45.4,20.53l15.83-38.62c-13.74-9.56-30.44-17-49.75-22.26a232.26,232.26,0,0,0-58.79-7.65q-43,0-72,13c-19.31,8.7-33.74,20.35-43.31,34.79a87.81,87.81,0,0,0-14.26,48.7c0,21.57,5.56,38.79,16.69,51.49a104.1,104.1,0,0,0,40.18,28.35q23.24,9.14,61.58,18.26c20.17,4.87,36,9.22,47,13,11.13,3.82,20.52,9.39,28,16.69q11.49,11,11.48,28.18c0,15.83-6.95,28.53-20.87,37.92-13.74,9.57-34.79,14.26-62.79,14.26a185.09,185.09,0,0,1-62.09-10.78c-20-7.31-36.53-16.7-49.4-28.35l-17.92,37.74c13.57,12.52,32.18,22.79,55.83,30.61a227.72,227.72,0,0,0,73.58,11.83c28.7,0,52.88-4.17,72.53-12.7s34.27-20.17,44-34.78a87.26,87.26,0,0,0,14.43-48.53C308.82,1411.12,303.26,1394.25,292.13,1381.73Z" transform="translate(-48.44 -218.88)"/><path d="M679.66,1186.57V1332H485.54V1186.57H437.19v338.14h48.35V1374.08H679.66v150.63H728V1186.57Z" transform="translate(-48.44 -218.88)"/><path d="M1043.53,1186.57H995.7L842.63,1524.71h49.75l37.22-84.54,16.87-38.61L1019.35,1236l72.88,165.59,16.87,38.61,37.22,84.54h50.79Z" transform="translate(-48.44 -218.88)"/><path d="M1559.6,1218.06q-37.83-31.57-103.32-31.49H1324.44v42.1h130.28c30.61,0,53.92,6.43,70.09,19.48,16,13,24.18,31.83,24.18,56.35s-8.17,43.14-24.18,56.18c-16.17,13-39.48,19.66-70.09,19.66H1324.44v144.37h48.18V1422.26h83.66q65.49,0,103.32-31.31c25.05-21,37.74-49.75,37.74-86.45S1584.65,1238.93,1559.6,1218.06Z" transform="translate(-48.44 -218.88)"/><path d="M1754.49,1482.61V1373.55h169.59v-41H1706.31v192.2h245.25v-42.1Zm190.28-253.94v-42.1H1706.31v42.1Z" transform="translate(-48.44 -218.88)"/><path d="M783,1771.92V1654.27h-9.2v125.94h81.69v-8.29Z" transform="translate(-48.44 -218.88)"/><path d="M933,1654.27v125.94h9.13V1654.27Z" transform="translate(-48.44 -218.88)"/><path d="M1112.59,1730.13a36.22,36.22,0,0,0-14.12-9.84,188.1,188.1,0,0,0-22.09-6.61,183.25,183.25,0,0,1-19.63-5.77,32.16,32.16,0,0,1-12-7.77c-3.24-3.3-4.86-7.84-4.86-13.48a21.86,21.86,0,0,1,9-18.14q9-7.08,26.43-7.06a62.69,62.69,0,0,1,18,2.72,57.51,57.51,0,0,1,16.58,7.91l3.44-7.39a61.11,61.11,0,0,0-17.43-8.22,69,69,0,0,0-20.54-3.11c-9.91,0-18.26,1.55-24.87,4.53s-11.6,7.06-14.84,12.11a30.78,30.78,0,0,0-4.86,16.85c0,7.51,2,13.6,5.83,18.07a35.46,35.46,0,0,0,14.19,10,192.85,192.85,0,0,0,22.22,6.67,156.18,156.18,0,0,1,19.44,5.57,32.24,32.24,0,0,1,12,7.71c3.24,3.37,4.86,7.91,4.86,13.48,0,7.32-3,13.28-9.2,17.81s-15.16,6.87-27.15,6.87a64.73,64.73,0,0,1-23.64-4.4c-7.52-2.92-13.48-6.74-17.88-11.41l-4.15,6.81c4.66,5,11.21,9.13,19.5,12.3a73.36,73.36,0,0,0,26.37,4.8c10,0,18.33-1.49,25.2-4.54s11.85-7,15.16-12a29.64,29.64,0,0,0,5-16.71C1118.49,1740.37,1116.54,1734.47,1112.59,1730.13Z" transform="translate(-48.44 -218.88)"/><path d="M1180.55,1654.27v8.29h45.28v117.65h9.2V1662.56h45.35v-8.29Z" transform="translate(-48.44 -218.88)"/><rect x="1295.19" y="1491.91" width="607.92" height="12.91"/><rect x="31.47" y="1491.91" width="588.11" height="12.91"/></svg>